<svg width="800" height="800" viewBox="0 0 800 800" fill="none" xmlns="http://www.w3.org/2000/svg">
<path d="M400 66.6667C404.52 66.6667 408.83 67.5664 412.76 69.196L423.35 76.2134L423.57 76.4297L590.237 243.096C603.253 256.114 603.253 277.219 590.237 290.237C577.22 303.254 556.113 303.254 543.097 290.237L433.333 180.474V533.333C433.333 551.743 418.41 566.667 400 566.667C381.59 566.667 366.667 551.743 366.667 533.333V180.474L256.904 290.237C243.886 303.254 222.781 303.254 209.763 290.237C196.746 277.219 196.746 256.114 209.763 243.096L376.43 76.4297C379.627 73.234 383.31 70.8227 387.24 69.196C391.17 67.5664 395.48 66.6667 400 66.6667Z" fill="white"/>
<path d="M133.333 566.667C133.333 548.257 118.409 533.333 99.9993 533.333C81.59 533.333 66.666 548.257 66.666 566.667V666.667C66.666 703.487 96.5137 733.333 133.333 733.333H666.666C703.486 733.333 733.333 703.487 733.333 666.667V566.667C733.333 548.257 718.409 533.333 699.999 533.333C681.589 533.333 666.666 548.257 666.666 566.667V666.667H133.333V566.667Z" fill="white"/>
</svg>
