<svg width="800" height="800" viewBox="0 0 800 800" fill="none" xmlns="http://www.w3.org/2000/svg">
<path d="M400 200C418.41 200 433.333 214.924 433.333 233.333V366.667H566.667C585.077 366.667 600 381.59 600 400C600 418.41 585.077 433.333 566.667 433.333H433.333V566.667C433.333 585.077 418.41 600 400 600C381.59 600 366.667 585.077 366.667 566.667V433.333H233.333C214.924 433.333 200 418.41 200 400C200 381.59 214.924 366.667 233.333 366.667H366.667V233.333C366.667 214.924 381.59 200 400 200Z" fill="white"/>
<path fill-rule="evenodd" clip-rule="evenodd" d="M33.334 400C33.334 197.496 197.496 33.3334 400.001 33.3334C602.504 33.3334 766.667 197.496 766.667 400C766.667 602.503 602.504 766.667 400.001 766.667C197.496 766.667 33.334 602.503 33.334 400ZM400.001 100C234.315 100 100.001 234.315 100.001 400C100.001 565.687 234.315 700 400.001 700C565.687 700 700.001 565.687 700.001 400C700.001 234.315 565.687 100 400.001 100Z" fill="white"/>
</svg>
