<svg width="800" height="800" viewBox="0 0 800 800" fill="none" xmlns="http://www.w3.org/2000/svg">
<path d="M241.602 505.92L355.843 387.52C362.243 380.8 372.803 381.12 378.883 387.84L404.48 415.36C410.88 422.08 421.443 422.08 427.843 415.36L494.08 345.92" stroke="white" stroke-width="52" stroke-miterlimit="10" stroke-linecap="round" stroke-linejoin="round"/>
<path d="M556.16 411.52L558.4 301.12C558.4 291.2 550.404 282.88 540.804 282.88L429.764 283.52" stroke="white" stroke-width="52" stroke-miterlimit="10" stroke-linecap="round" stroke-linejoin="round"/>
<path d="M400 704C567.894 704 704 567.894 704 400C704 232.105 567.894 96 400 96C232.105 96 96 232.105 96 400C96 567.894 232.105 704 400 704Z" stroke="white" stroke-width="52" stroke-miterlimit="10" stroke-linecap="round" stroke-linejoin="round"/>
</svg>
