<svg width="800" height="800" viewBox="0 0 800 800" fill="none" xmlns="http://www.w3.org/2000/svg">
<path fill-rule="evenodd" clip-rule="evenodd" d="M354.396 62.6197C371.923 23.5712 427.359 23.5713 444.886 62.6197L530.489 253.352L738.339 275.827C780.893 280.428 798.026 333.153 766.303 361.887L611.359 502.24L654.213 706.863C662.986 748.757 618.136 781.343 581.006 760.053L399.643 656.063L218.276 760.053C181.146 781.343 136.295 748.757 145.068 706.863L187.923 502.24L32.9788 361.887C1.25727 333.153 18.3888 280.428 60.9417 275.827L268.792 253.352L354.396 62.6197ZM399.643 124.623L325.605 289.581C318.394 305.649 303.201 316.686 285.692 318.58L105.929 338.017L239.935 459.403C252.988 471.227 258.791 489.087 255.18 506.327L218.117 683.297L374.973 593.36C390.253 584.6 409.029 584.6 424.309 593.36L581.166 683.297L544.103 506.327C540.493 489.087 546.293 471.23 559.346 459.403L693.353 338.017L513.589 318.58C496.079 316.686 480.889 305.649 473.676 289.581L399.643 124.623Z" fill="#64748B"/>
</svg>
